<svg width="31" height="22" viewBox="0 0 31 22" fill="none" xmlns="http://www.w3.org/2000/svg">
<path d="M29.2831 3.19539C28.8297 2.95073 28.3177 2.83551 27.8032 2.86235C27.2888 2.8892 26.7916 3.05707 26.3661 3.34759L20.9531 6.98019V4.09179C20.9522 3.29642 20.6358 2.53388 20.0734 1.97147C19.511 1.40906 18.7485 1.0927 17.9531 1.0918H3.95312C3.15775 1.0927 2.39521 1.40906 1.8328 1.97147C1.27038 2.53388 0.954025 3.29642 0.953125 4.09179V18.0918C0.954025 18.8871 1.27038 19.6497 1.8328 20.2121C2.39521 20.7745 3.15775 21.0909 3.95312 21.0918H17.9531C18.7485 21.0909 19.511 20.7745 20.0734 20.2121C20.6358 19.6497 20.9522 18.8871 20.9531 18.0918V15.2032L26.3671 18.836C26.7916 19.1285 27.2888 19.2975 27.8036 19.3244C28.3183 19.3513 28.8305 19.2349 29.2831 18.9882C29.7985 18.7019 30.2263 18.2808 30.5205 17.7699C30.8147 17.259 30.9642 16.6776 30.9531 16.0882V6.09579C30.9643 5.50627 30.8148 4.92483 30.5206 4.41385C30.2264 3.90287 29.7986 3.48166 29.2831 3.19539ZM18.9531 18.0918C18.9528 18.3569 18.8473 18.6111 18.6599 18.7985C18.4724 18.986 18.2182 19.0915 17.9531 19.0918H3.95312C3.688 19.0915 3.43383 18.986 3.24637 18.7985C3.0589 18.6111 2.95344 18.3569 2.95312 18.0918V4.09179C2.95344 3.82667 3.0589 3.57251 3.24637 3.38504C3.43383 3.19757 3.688 3.09211 3.95312 3.09179H17.9531C18.2182 3.09211 18.4724 3.19757 18.6599 3.38504C18.8473 3.57251 18.9528 3.82667 18.9531 4.09179V18.0918ZM28.9531 16.0878C28.9639 16.3149 28.9127 16.5407 28.805 16.7409C28.6973 16.9412 28.5371 17.1084 28.3417 17.2246C28.2087 17.2997 28.057 17.3351 27.9045 17.3264C27.7521 17.3178 27.6053 17.2655 27.4817 17.1758L20.9531 12.795V9.38859L27.4805 5.00859C27.6049 4.92018 27.7517 4.86869 27.9041 4.86006C28.0564 4.85142 28.2081 4.886 28.3417 4.95979C28.537 5.07592 28.6971 5.24297 28.8048 5.44308C28.9125 5.64318 28.9638 5.8688 28.9531 6.09579V16.0878Z" fill="#5355DF" stroke="#5355DF" stroke-width="0.7"/>
</svg>
