<svg width="60" height="61" viewBox="0 0 60 61" fill="none" xmlns="http://www.w3.org/2000/svg">
<g clip-path="url(#icon_cart_pie_clip)">
<path d="M60 58.6914H59V50.6914H57V58.6914H55V45.6914H53V58.6914H51V50.6914H49V58.6914H47V52.6914H45V58.6914H43V47.6914H41V58.6914H39V44.6914H37V58.6914H35V51.6914H33V58.6914H31V53.6914H29V58.6914H27V47.6914H25V58.6914H23V43.6914H21V58.6914H19V53.6914H17V58.6914H15V49.6914H13V58.6914H11V43.6914H9V58.6914H7V46.6914H5V58.6914H3V53.6914H1V58.6914H0V60.6914H60V58.6914Z" fill="white"/>
<path d="M20 40.6914C23.2939 40.6914 26.4629 39.8945 29.2969 38.4023L32.293 41.3984C32.48 41.5864 32.7349 41.6914 33 41.6914H45V39.6914H33.4141L31.0742 37.3516C32.165 36.6226 33.1929 35.7822 34.1421 34.8335C34.3301 34.6455 34.4351 34.3916 34.4351 34.1265C34.4351 33.8613 34.3301 33.6064 34.1421 33.4194L20.4141 19.6914L33.0942 7.01123C33.291 6.81445 33.397 6.54541 33.3862 6.26758C33.375 5.98926 33.25 5.72852 33.0391 5.54736C29.4072 2.41553 24.7759 0.691406 20 0.691406C8.97217 0.691406 0 9.66357 0 20.6914C0 31.7192 8.97217 40.6914 20 40.6914ZM20 2.69141C23.938 2.69141 27.7661 3.99463 30.896 6.38135L18.293 18.9844C17.9019 19.3755 17.9019 20.0073 18.293 20.3984L32.001 34.1074C31.2539 34.7773 30.4541 35.3682 29.6201 35.8984L26.7061 32.9844L25.292 34.3984L27.8071 36.9136C25.4028 38.0732 22.749 38.6914 20 38.6914C10.0752 38.6914 2 30.6162 2 20.6914C2 10.7666 10.0752 2.69141 20 2.69141Z" fill="white"/>
<path d="M50.0004 5.69141V3.69141H47.0004C46.7352 3.69141 46.4803 3.79639 46.2933 3.98438L41.8085 8.46924C40.9916 7.41553 40.0692 6.43359 39.0404 5.54639C38.6444 5.20361 38.0511 5.22656 37.6805 5.59619L24.2933 18.9844C23.9022 19.3755 23.9022 20.0073 24.2933 20.3984L38.7284 34.8335C38.9232 35.0283 39.1796 35.1265 39.4354 35.1265C39.6913 35.1265 39.9471 35.0283 40.1425 34.8335C43.9193 31.0566 46.0004 26.0332 46.0004 20.6914C46.0004 16.9204 44.9261 13.2754 42.9681 10.1372L47.4144 5.69141H50.0004ZM44.0004 20.6914C44.0004 25.1646 42.3793 29.3882 39.4164 32.6924L26.4144 19.6914L38.4213 7.68457C39.1415 8.37158 39.7802 9.12354 40.3695 9.90723L37.2933 12.9834L38.7074 14.3975L41.5043 11.6006C43.1122 14.3335 44.0004 17.4575 44.0004 20.6914Z" fill="white"/>
<path d="M52 3.69141H60V5.69141H52V3.69141Z" fill="white"/>
<path d="M52 7.69141H60V9.69141H52V7.69141Z" fill="white"/>
<path d="M52 11.6914H60V13.6914H52V11.6914Z" fill="white"/>
<path d="M47 39.6914H49V41.6914H47V39.6914Z" fill="white"/>
<path d="M47 35.6914H60V37.6914H47V35.6914Z" fill="white"/>
<path d="M47 31.6914H60V33.6914H47V31.6914Z" fill="white"/>
<path d="M6 13.6914H15V15.6914H6V13.6914Z" fill="white"/>
<path d="M6 17.6914H15V19.6914H6V17.6914Z" fill="white"/>
<path d="M6 21.6914H15V23.6914H6V21.6914Z" fill="white"/>
<path d="M51 39.6914H53V41.6914H51V39.6914Z" fill="white"/>
<path d="M55 39.6914H57V41.6914H55V39.6914Z" fill="white"/>
</g>
<defs>
<clipPath id="icon_cart_pie_clip">
<rect width="60" height="60" fill="white" transform="translate(0 0.691406)"/>
</clipPath>
</defs>
</svg>
