<svg width="31" height="24" viewBox="0 0 31 24" fill="none" xmlns="http://www.w3.org/2000/svg">
<path d="M7.95313 19.2383C7.55163 19.2383 7.17463 19.0818 6.89213 18.7983L1.39263 13.2988C1.10963 13.0168 0.953125 12.6398 0.953125 12.2383C0.953125 11.8368 1.10963 11.4598 1.39313 11.1773L6.89263 5.67778C7.17463 5.39478 7.55163 5.23828 7.95313 5.23828C8.78013 5.23828 9.45313 5.91128 9.45313 6.73828C9.45313 7.13978 9.29663 7.51678 9.01313 7.79928L4.57413 12.2383L9.01363 16.6778C9.29713 16.9598 9.45313 17.3368 9.45313 17.7383C9.45313 18.5653 8.78013 19.2383 7.95313 19.2383Z" fill="#5355DF"/>
<path d="M23.9531 19.7383C23.1261 19.7383 22.4531 19.0653 22.4531 18.2383C22.4531 17.8368 22.6096 17.4598 22.8931 17.1773L27.3321 12.7383L22.8926 8.29878C22.6096 8.01578 22.4531 7.63878 22.4531 7.23828C22.4531 6.41128 23.1261 5.73828 23.9531 5.73828C24.3546 5.73828 24.7316 5.89478 25.0141 6.17828L30.5136 11.6778C30.7971 11.9608 30.9531 12.3378 30.9531 12.7383C30.9531 13.1398 30.7966 13.5168 30.5131 13.7993L25.0136 19.2988C24.7316 19.5823 24.3546 19.7383 23.9531 19.7383Z" fill="#5355DF"/>
<path d="M11.4531 23.7383C10.6261 23.7383 9.95312 23.0653 9.95312 22.2383C9.95312 22.0393 9.99212 21.8448 10.0681 21.6608L19.0686 1.65978C19.3036 1.09978 19.8471 0.738281 20.4531 0.738281C21.2801 0.738281 21.9531 1.41128 21.9531 2.23828C21.9531 2.43728 21.9141 2.63178 21.8381 2.81578L12.8376 22.8168C12.6026 23.3768 12.0591 23.7383 11.4531 23.7383Z" fill="#5355DF"/>
</svg>
