<svg width="30" height="30" viewBox="0 0 30 30" fill="none" xmlns="http://www.w3.org/2000/svg">
<path d="M28.125 29.3594H18.5625C17.875 29.3594 17.3125 28.7969 17.3125 28.1094V22.1719C17.3125 20.6719 16.125 19.4844 14.625 19.4844C13.125 19.4844 11.9375 20.6719 11.9375 22.1719V28.1094C11.9375 28.7969 11.375 29.3594 10.6875 29.3594H1.25C0.5625 29.3594 0 28.7969 0 28.1094V12.1094C0 10.9844 0.5625 9.92188 1.4375 9.29688L14 0.234375C14.4375 -0.078125 15 -0.078125 15.4375 0.234375L28 9.29688C28.875 9.92188 29.4375 10.9844 29.4375 12.1094V28.1719C29.375 28.7969 28.8125 29.3594 28.125 29.3594ZM19.8125 26.9219H26.9375V12.1094C26.9375 11.7969 26.75 11.4844 26.5 11.2969L14.6875 2.73438L2.875 11.2344C2.625 11.4219 2.4375 11.7344 2.4375 12.0469V26.8594H9.5625V22.1719C9.5625 19.3594 11.875 17.0469 14.6875 17.0469C17.5 17.0469 19.8125 19.3594 19.8125 22.1719V26.9219Z" fill="#5355DF"/>
</svg>
