<svg width="61" height="61" viewBox="0 0 61 61" fill="none" xmlns="http://www.w3.org/2000/svg">
<g clip-path="url(#icon_hands_clip)">
<path d="M3.06729 59.7236H5.00277V51.9817C5.00277 51.7241 4.90118 51.4784 4.71925 51.2974L2.09955 48.6777V40.3688C2.09955 39.8348 2.53427 39.401 3.06729 39.401C3.6003 39.401 4.03503 39.8348 4.03503 40.3688V47.143H5.97051V31.6591C5.97051 31.1251 6.40524 30.6913 6.93826 30.6913C7.47127 30.6913 7.906 31.1251 7.906 31.6591V44.2397H9.84148V31.6591C9.84148 31.1251 10.2762 30.6913 10.8092 30.6913C11.3422 30.6913 11.777 31.1251 11.777 31.6591V44.2397H13.7125V31.6591C13.7125 31.1251 14.1472 30.6913 14.6802 30.6913C15.2132 30.6913 15.6479 31.1251 15.6479 31.6591V44.2397H17.5834V31.6591C17.5834 31.1251 18.0181 30.6913 18.5512 30.6913C19.0842 30.6913 19.5189 31.1251 19.5189 31.6591V59.7236H21.4544V31.6591C21.4544 30.0586 20.1516 28.7559 18.5512 28.7559C17.805 28.7559 17.1307 29.0469 16.6157 29.5105C16.1006 29.046 15.4263 28.7559 14.6802 28.7559C13.9341 28.7559 13.2598 29.0469 12.7447 29.5105C12.2297 29.046 11.5553 28.7559 10.8092 28.7559C10.0631 28.7559 9.3888 29.0469 8.87374 29.5105C8.35868 29.0469 7.68438 28.7559 6.93826 28.7559C5.3378 28.7559 4.03503 30.0586 4.03503 31.6591V37.6437C3.73119 37.535 3.40798 37.4655 3.06729 37.4655C1.46683 37.4655 0.164062 38.7683 0.164062 40.3688V49.0784C0.164062 49.336 0.265657 49.5817 0.447581 49.7627L3.06729 52.3824V59.7236Z" fill="white"/>
<path d="M35.2859 28.0708C35.104 28.2517 35.0024 28.4974 35.0024 28.755V59.7227H36.9379V29.1557L39.5576 26.536C39.7395 26.355 39.8411 26.1093 39.8411 25.8518V4.56143C39.8411 2.96097 38.5383 1.6582 36.9379 1.6582C35.3374 1.6582 34.0347 2.96097 34.0347 4.56143V9.57828C33.7308 9.4696 33.4076 9.40014 33.0669 9.40014C32.3208 9.40014 31.6465 9.69122 31.1314 10.1548C30.6164 9.69027 29.9421 9.40014 29.1959 9.40014C28.8552 9.40014 28.532 9.4696 28.2282 9.57828V4.56143C28.2282 2.96097 26.9254 1.6582 25.325 1.6582C23.7245 1.6582 22.4217 2.96097 22.4217 4.56143V16.1743H19.5185C18.9846 16.1743 18.5508 16.6067 18.5508 17.1421V22.9485C18.5508 23.2061 18.6524 23.4518 18.8343 23.6327L23.3895 28.1879V59.7227H25.325V27.7872C25.325 27.5297 25.2234 27.284 25.0415 27.103L20.4863 22.5478V18.1098H29.0306C28.6308 19.2363 27.5548 20.0453 26.2927 20.0453H23.3895V21.9808H26.2927C28.8812 21.9808 30.9845 19.9319 31.1083 17.3746C31.1158 17.3675 31.1239 17.3618 31.1314 17.3552C31.6465 17.8197 32.3208 18.1098 33.0669 18.1098C34.6674 18.1098 35.9701 16.8071 35.9701 15.2066V4.56143C35.9701 4.02747 36.4049 3.59369 36.9379 3.59369C37.4709 3.59369 37.9056 4.02747 37.9056 4.56143V25.451L35.2859 28.0708ZM29.1959 11.3356C29.729 11.3356 30.1637 11.7694 30.1637 12.3034V15.2066C30.1637 15.7406 29.729 16.1743 29.1959 16.1743C28.6629 16.1743 28.2282 15.7406 28.2282 15.2066V12.3034C28.2282 11.7694 28.6629 11.3356 29.1959 11.3356ZM24.3572 4.56143C24.3572 4.02747 24.792 3.59369 25.325 3.59369C25.858 3.59369 26.2927 4.02747 26.2927 4.56143V15.2066C26.2927 15.5473 26.3622 15.8705 26.4709 16.1743H24.3572V4.56143ZM33.0669 16.1743C32.5339 16.1743 32.0992 15.7406 32.0992 15.2066V12.3034C32.0992 11.7694 32.5339 11.3356 33.0669 11.3356C33.5999 11.3356 34.0347 11.7694 34.0347 12.3034V15.2066C34.0347 15.7406 33.5999 16.1743 33.0669 16.1743Z" fill="white"/>
<path d="M57.2621 28.7559C56.516 28.7559 55.8417 29.0469 55.3266 29.5105C54.8116 29.046 54.1373 28.7559 53.3911 28.7559C52.645 28.7559 51.9707 29.0469 51.4556 29.5105C50.9406 29.046 50.2663 28.7559 49.5202 28.7559C48.774 28.7559 48.0997 29.0469 47.5847 29.5105C47.0696 29.046 46.3953 28.7559 45.6492 28.7559C44.0487 28.7559 42.746 30.0586 42.746 31.6591V37.6437C42.4421 37.535 42.1189 37.4655 41.7782 37.4655C40.1778 37.4655 38.875 38.7683 38.875 40.3688V49.0784C38.875 49.336 38.9766 49.5817 39.1585 49.7627L41.7782 52.3824V59.7236H43.7137V51.9817C43.7137 51.7241 43.6121 51.4784 43.4302 51.2974L40.8105 48.6777V40.3688C40.8105 39.8348 41.2452 39.401 41.7782 39.401C42.3112 39.401 42.746 39.8348 42.746 40.3688V47.143H44.6815V31.6591C44.6815 31.1251 45.1162 30.6913 45.6492 30.6913C46.1822 30.6913 46.6169 31.1251 46.6169 31.6591V44.2397H48.5524V31.6591C48.5524 31.1251 48.9871 30.6913 49.5202 30.6913C50.0532 30.6913 50.4879 31.1251 50.4879 31.6591V44.2397H52.4234V31.6591C52.4234 31.1251 52.8581 30.6913 53.3911 30.6913C53.9241 30.6913 54.3589 31.1251 54.3589 31.6591V44.2397H56.2944V31.6591C56.2944 31.1251 56.7291 30.6913 57.2621 30.6913C57.7951 30.6913 58.2298 31.1251 58.2298 31.6591V59.7236H60.1653V31.6591C60.1653 30.0586 58.8626 28.7559 57.2621 28.7559Z" fill="white"/>
<path d="M42.7461 15.207H44.6816V17.1425H42.7461V15.207Z" fill="white"/>
<path d="M46.6172 15.207H48.5527V17.1425H46.6172V15.207Z" fill="white"/>
<path d="M46.6172 19.0781H48.5527V21.0136H46.6172V19.0781Z" fill="white"/>
<path d="M46.6172 11.3359H48.5527V13.2714H46.6172V11.3359Z" fill="white"/>
<path d="M50.4883 15.207H52.4238V17.1425H50.4883V15.207Z" fill="white"/>
<path d="M50.4883 19.0781H52.4238V21.0136H50.4883V19.0781Z" fill="white"/>
<path d="M50.4883 22.9492H52.4238V24.8847H50.4883V22.9492Z" fill="white"/>
<path d="M50.4883 11.3359H52.4238V13.2714H50.4883V11.3359Z" fill="white"/>
<path d="M50.4883 7.46484H52.4238V9.40033H50.4883V7.46484Z" fill="white"/>
<path d="M13.7109 15.207H15.6464V17.1425H13.7109V15.207Z" fill="white"/>
<path d="M9.83984 15.207H11.7753V17.1425H9.83984V15.207Z" fill="white"/>
<path d="M9.83984 19.0781H11.7753V21.0136H9.83984V19.0781Z" fill="white"/>
<path d="M9.83984 11.3359H11.7753V13.2714H9.83984V11.3359Z" fill="white"/>
<path d="M5.96875 15.207H7.90423V17.1425H5.96875V15.207Z" fill="white"/>
<path d="M5.96875 19.0781H7.90423V21.0136H5.96875V19.0781Z" fill="white"/>
<path d="M5.96875 22.9492H7.90423V24.8847H5.96875V22.9492Z" fill="white"/>
<path d="M5.96875 11.3359H7.90423V13.2714H5.96875V11.3359Z" fill="white"/>
<path d="M5.96875 7.46484H7.90423V9.40033H5.96875V7.46484Z" fill="white"/>
</g>
<defs>
<clipPath id="icon_hands_clip">
<rect width="60" height="60" fill="white" transform="translate(0.164062 0.691406)"/>
</clipPath>
</defs>
</svg>