<svg width="61" height="61" viewBox="0 0 61 61" fill="none" xmlns="http://www.w3.org/2000/svg">
<g clip-path="url(#icon_sales_clip)">
<path d="M50.1639 21.5511C50.1639 20.1717 51.2849 19.0511 52.6638 19.0511C55.1448 19.0511 57.1638 17.032 57.1638 14.5511C57.1638 12.0697 55.1448 10.0511 52.6638 10.0511H33.578L23.871 0.344115C23.4799 -0.0469967 22.848 -0.0469967 22.4569 0.344115L0.45703 22.344C0.269043 22.531 0.164062 22.7849 0.164062 23.0511V59.0509C0.164062 59.6036 0.611326 60.0509 1.16406 60.0509H45.1639C45.7171 60.0509 46.1639 59.6036 46.1639 59.0509V23.0511C46.1639 22.7849 46.0589 22.531 45.8709 22.344L35.578 12.0511H52.6638C54.0427 12.0511 55.1638 13.1717 55.1638 14.5511C55.1638 15.93 54.0427 17.0511 52.6638 17.0511C50.1829 17.0511 48.1639 19.0696 48.1639 21.5511C48.1639 24.032 50.1829 26.051 52.6638 26.051H60.1638V24.051H52.6638C51.2849 24.051 50.1639 22.93 50.1639 21.5511ZM44.1639 23.4646V58.0509H2.16405V23.4646L23.164 2.46471L30.7499 10.0511H27.0219C26.5751 8.32992 25.0228 7.05112 23.164 7.05112C20.9579 7.05112 19.164 8.84506 19.164 11.0511C19.164 13.2567 20.9579 15.0511 23.164 15.0511C25.0228 15.0511 26.5751 13.7718 27.0219 12.0511H32.7499L44.1639 23.4646ZM24.8861 12.0511C24.539 12.6458 23.9013 13.0511 23.164 13.0511C22.0609 13.0511 21.164 12.1536 21.164 11.0511C21.164 9.94808 22.0609 9.05111 23.164 9.05111C23.9013 9.05111 24.539 9.45589 24.8861 10.0511H23.164V12.0511H24.8861Z" fill="white"/>
<path d="M26.5506 21.4092L23.7757 19.2603C23.4144 18.981 22.9124 18.981 22.5506 19.2603L19.7757 21.4092L16.2967 20.9331C15.8446 20.875 15.4066 21.1221 15.2347 21.5469L13.9095 24.7969L10.6595 26.122C10.2367 26.2939 9.98376 26.7299 10.0458 27.184L10.5214 30.663L8.37244 33.4379C8.0946 33.7978 8.0946 34.3022 8.37244 34.663L10.5214 37.4379L10.0458 40.9169C9.98376 41.37 10.2367 41.807 10.6595 41.9789L13.9095 43.3041L15.2347 46.5541C15.4066 46.9779 15.8446 47.222 16.2967 47.1679L19.7757 46.6918L22.5506 48.8407C22.7308 48.9818 22.9466 49.0511 23.1624 49.0511C23.3787 49.0511 23.5945 48.9818 23.7747 48.8417L26.5496 46.6928L30.0286 47.1688C30.4754 47.223 30.9187 46.9789 31.0906 46.5551L32.4153 43.3051L35.6653 41.9799C36.0886 41.808 36.3416 41.372 36.2795 40.9179L35.8035 37.4389L37.9524 34.664C38.2307 34.3041 38.2307 33.7997 37.9524 33.4389L35.8035 30.664L36.2795 27.185C36.3416 26.7319 36.0886 26.2949 35.6653 26.123L32.4153 24.7978L31.0906 21.5478C30.9187 21.123 30.4763 20.876 30.0286 20.9341L26.5506 21.4092ZM31.2703 26.4912L34.1926 27.6821L33.7644 30.8071C33.7283 31.0742 33.8006 31.3432 33.9646 31.5551L35.8977 34.0512L33.9646 36.5458C33.8006 36.7577 33.7283 37.0268 33.7644 37.2939L34.1926 40.4189L31.2703 41.6098C31.0203 41.7118 30.8235 41.9091 30.7215 42.1591L29.5306 45.0809L26.4056 44.6527C26.1336 44.6171 25.8704 44.6889 25.6575 44.8529L23.1624 46.786L20.6673 44.8529C20.4905 44.7167 20.2757 44.6439 20.0555 44.6439C20.0106 44.6439 19.9656 44.6469 19.9198 44.6527L16.7948 45.0809L15.6034 42.1591C15.5018 41.9091 15.3045 41.7118 15.0545 41.6098L12.1327 40.4189L12.5604 37.2939C12.5965 37.0268 12.5248 36.7577 12.3607 36.5458L10.4276 34.0512L12.3607 31.5561C12.5248 31.3442 12.5965 31.0751 12.5604 30.8081L12.1327 27.6831L15.0545 26.4922C15.3045 26.3901 15.5018 26.1928 15.6034 25.9428L16.7948 23.021L19.9198 23.4492C20.1907 23.4829 20.4544 23.4121 20.6673 23.249L23.1624 21.3159L25.6575 23.249C25.8704 23.4121 26.1336 23.4829 26.4056 23.4492L29.5306 23.021L30.7215 25.9428C30.8235 26.1928 31.0203 26.3901 31.2703 26.4912Z" fill="white"/>
<path d="M4.16406 52.0508H6.16405V56.0508H4.16406V52.0508Z" fill="white"/>
<path d="M8.16406 52.0508H10.1641V56.0508H8.16406V52.0508Z" fill="white"/>
<path d="M12.1641 52.0508H14.1641V56.0508H12.1641V52.0508Z" fill="white"/>
<path d="M16.1641 52.0508H18.1641V56.0508H16.1641V52.0508Z" fill="white"/>
<path d="M20.1641 52.0508H22.1641V56.0508H20.1641V52.0508Z" fill="white"/>
<path d="M24.1641 52.0508H26.1641V56.0508H24.1641V52.0508Z" fill="white"/>
<path d="M28.1641 52.0508H30.1641V56.0508H28.1641V52.0508Z" fill="white"/>
<path d="M32.1641 52.0508H34.1641V56.0508H32.1641V52.0508Z" fill="white"/>
<path d="M36.1641 52.0508H38.1641V56.0508H36.1641V52.0508Z" fill="white"/>
<path d="M40.1641 52.0508H42.1641V56.0508H40.1641V52.0508Z" fill="white"/>
<path d="M16.457 39.3442L28.457 27.3438L29.8715 28.7583L17.8711 40.7582L16.457 39.3442Z" fill="white"/>
<path d="M19.1641 30.0508H21.1641V32.0508H19.1641V30.0508Z" fill="white"/>
<path d="M24.1641 37.0508H26.1641V39.0508H24.1641V37.0508Z" fill="white"/>
</g>
<defs>
<clipPath id="icon_sales_clip">
<rect width="60" height="60" fill="white" transform="translate(0.164062 0.0507812)"/>
</clipPath>
</defs>
</svg>