<svg width="80" height="61" viewBox="0 0 80 61" fill="none" xmlns="http://www.w3.org/2000/svg">
<g opacity="0.15">
<g clip-path="url(#icon_code_clip_0)">
<path d="M3.99971 52.0205L39.9993 52.0205C42.1989 52.0205 44 51.8657 44 51.6768L44 48.5831C44 48.394 42.1989 48.2393 39.9993 48.2393L3.99971 48.2393C1.8013 48.2393 0.000145276 48.394 0.000145259 48.5831L0.000144989 51.6768C0.000144972 51.8657 1.8013 52.0205 3.99971 52.0205Z" fill="#5355DF"/>
<path d="M3.99971 46.5205L39.9993 46.5205C42.1989 46.5205 44 46.3657 44 46.1768L44 43.0831C44 42.894 42.1989 42.7393 39.9993 42.7393L3.99971 42.7393C1.8013 42.7393 0.000145276 42.894 0.000145259 43.0831L0.000144989 46.1768C0.000144972 46.3657 1.8013 46.5205 3.99971 46.5205Z" fill="#5355DF"/>
<path d="M8.20683 41.0205L40.4201 41.0205C42.3883 41.0205 44 40.8657 44 40.6768L44 37.5831C44 37.394 42.3883 37.2393 40.4201 37.2393L8.20683 37.2393C6.23964 37.2393 4.62793 37.394 4.62793 37.5831L4.62793 40.6768C4.62793 40.8657 6.23964 41.0205 8.20683 41.0205Z" fill="#5355DF"/>
<path d="M3.99971 35.5205L39.9993 35.5205C42.1989 35.5205 44 35.3657 44 35.1768L44 32.0831C44 31.894 42.1989 31.7393 39.9993 31.7393L3.99971 31.7393C1.8013 31.7393 0.000145276 31.894 0.000145259 32.0831L0.000144989 35.1768C0.000144972 35.3657 1.8013 35.5205 3.99971 35.5205Z" fill="#5355DF"/>
<path d="M3.99971 30.0205L39.9993 30.0205C42.1989 30.0205 44 29.8657 44 29.6768L44 26.5831C44 26.394 42.1989 26.2393 39.9993 26.2393L3.99971 26.2393C1.8013 26.2393 0.000145276 26.394 0.000145259 26.5831L0.000144989 29.6768C0.000144972 29.8657 1.8013 30.0205 3.99971 30.0205Z" fill="#5355DF"/>
<path d="M3.99971 11.8018L39.9993 11.8018C42.1989 11.8018 44 11.647 44 11.458L44 8.36432C44 8.1753 42.1989 8.02051 39.9993 8.02051L3.99971 8.0205C1.8013 8.0205 0.000145276 8.17529 0.000145259 8.36432L0.000144989 11.458C0.000144972 11.647 1.8013 11.8018 3.99971 11.8018Z" fill="#5355DF"/>
<path d="M3.99971 24.5205L39.9993 24.5205C42.1989 24.5205 44 24.3657 44 24.1768L44 21.0831C44 20.894 42.1989 20.7393 39.9993 20.7393L3.99971 20.7393C1.8013 20.7393 0.000145276 20.894 0.000145259 21.0831L0.000144989 24.1768C0.000144972 24.3657 1.8013 24.5205 3.99971 24.5205Z" fill="#5355DF"/>
<path d="M8.20683 18.1611L40.4201 18.1611C42.3883 18.1611 44 18.0063 44 17.8174L44 14.7237C44 14.5347 42.3883 14.3799 40.4201 14.3799L8.20683 14.3799C6.23964 14.3799 4.62793 14.5347 4.62793 14.7237L4.62793 17.8174C4.62793 18.0063 6.23964 18.1611 8.20683 18.1611Z" fill="#5355DF"/>
</g>
</g>
<g clip-path="url(#icon_code_clip_1)">
<path d="M43.6728 42.0677C43.4462 42.0677 43.2179 41.9897 43.0316 41.8311L36.6217 36.373C36.4006 36.1845 36.2734 35.9092 36.2734 35.6185C36.2734 35.3283 36.4011 35.053 36.6217 34.8645L43.0316 29.4064C43.4479 29.0516 44.073 29.1019 44.4279 29.5181C44.7822 29.9349 44.7325 30.5601 44.3157 30.9144L38.7919 35.6185L44.3157 40.3226C44.7325 40.6775 44.7822 41.3026 44.4279 41.7189C44.2317 41.9494 43.9531 42.0677 43.6728 42.0677Z" fill="#5355DF"/>
<path d="M56.327 42.0677C56.0467 42.0677 55.7681 41.9494 55.5725 41.7189C55.2176 41.3026 55.2679 40.6775 55.6841 40.3226L61.208 35.6185L55.6841 30.9144C55.2679 30.5601 55.2176 29.9349 55.5725 29.5181C55.9268 29.1019 56.5525 29.0516 56.9682 29.4064L63.3781 34.8645C63.5993 35.053 63.7264 35.3283 63.7264 35.6185C63.7264 35.9092 63.5993 36.1845 63.3781 36.373L56.9682 41.8311C56.7819 41.9897 56.5536 42.0677 56.327 42.0677Z" fill="#5355DF"/>
<path d="M47.7304 46.1617C47.6624 46.1617 47.5939 46.1545 47.5248 46.1402C46.9897 46.0274 46.647 45.5017 46.7597 44.9666L50.7546 25.9994C50.8674 25.4643 51.3925 25.1216 51.9282 25.2344C52.4632 25.3471 52.806 25.8723 52.6932 26.4079L48.6983 45.3751C48.5999 45.8417 48.1887 46.1617 47.7304 46.1617Z" fill="#5355DF"/>
<path d="M73.3491 56.4953H26.6509C22.9839 56.4953 20 53.512 20 49.8443V10.2095C20 6.54245 22.9839 3.55859 26.6509 3.55859H73.3491C77.0162 3.55859 80 6.54245 80 10.2095V49.8443C80 53.512 77.0162 56.4953 73.3491 56.4953ZM26.6509 5.53973C24.0761 5.53973 21.9811 7.63473 21.9811 10.2095V49.8443C21.9811 52.4192 24.0761 54.5142 26.6509 54.5142H73.3491C75.9239 54.5142 78.0189 52.4192 78.0189 49.8443V10.2095C78.0189 7.63473 75.9239 5.53973 73.3491 5.53973H26.6509Z" fill="#5355DF"/>
<path d="M79.0094 19.4196H20.9906C20.4433 19.4196 20 18.9763 20 18.429C20 17.8824 20.4433 17.4385 20.9906 17.4385H79.0094C79.5567 17.4385 80 17.8824 80 18.429C80 18.9763 79.5567 19.4196 79.0094 19.4196Z" fill="#5355DF"/>
<path d="M36.9238 14.6797C35.1959 14.6797 33.7891 13.2729 33.7891 11.5449C33.7891 9.81641 35.1959 8.41016 36.9238 8.41016C38.6523 8.41016 40.0586 9.81641 40.0586 11.5449C40.0586 13.2729 38.6523 14.6797 36.9238 14.6797ZM36.9238 10.3913C36.2881 10.3913 35.7702 10.9087 35.7702 11.5449C35.7702 12.1812 36.2881 12.6986 36.9238 12.6986C37.5601 12.6986 38.0775 12.1812 38.0775 11.5449C38.0775 10.9087 37.5601 10.3913 36.9238 10.3913Z" fill="#5355DF"/>
<path d="M27.293 14.6494C25.5645 14.6494 24.1582 13.2432 24.1582 11.5146C24.1582 9.78613 25.5645 8.37988 27.293 8.37988C29.0215 8.37988 30.4277 9.78613 30.4277 11.5146C30.4277 13.2432 29.0215 14.6494 27.293 14.6494ZM27.293 10.361C26.6573 10.361 26.1393 10.879 26.1393 11.5146C26.1393 12.1509 26.6573 12.6683 27.293 12.6683C27.9292 12.6683 28.4466 12.1509 28.4466 11.5146C28.4466 10.879 27.9292 10.361 27.293 10.361Z" fill="#5355DF"/>
<path d="M46.5561 14.7094C44.8281 14.7094 43.4219 13.3032 43.4219 11.5746C43.4219 9.84668 44.8281 8.44043 46.5561 8.44043C48.2846 8.44043 49.6909 9.84668 49.6909 11.5746C49.6909 13.3032 48.2846 14.7094 46.5561 14.7094ZM46.5561 10.421C45.9204 10.421 45.403 10.9384 45.403 11.5746C45.403 12.2109 45.9204 12.7283 46.5561 12.7283C47.1923 12.7283 47.7097 12.2109 47.7097 11.5746C47.7097 10.9384 47.1923 10.421 46.5561 10.421Z" fill="#5355DF"/>
</g>
<defs>
<clipPath id="icon_code_clip_0">
<rect width="44" height="44" fill="white" transform="translate(44 52.0205) rotate(-180)"/>
</clipPath>
<clipPath id="icon_code_clip_1">
<rect width="60" height="60" fill="white" transform="translate(20 0.0205078)"/>
</clipPath>
</defs>
</svg>
