<svg width="29" height="33" viewBox="0 0 29 33" fill="none" xmlns="http://www.w3.org/2000/svg">
<path d="M14.6895 1.0293V2.08298" stroke="#5355DF" stroke-width="2" stroke-miterlimit="10" stroke-linecap="round" stroke-linejoin="round"/>
<path d="M24.3256 4.84375L23.541 5.62837" stroke="#5355DF" stroke-width="2" stroke-miterlimit="10" stroke-linecap="round" stroke-linejoin="round"/>
<path d="M27.9697 14.4805H26.916" stroke="#5355DF" stroke-width="2" stroke-miterlimit="10" stroke-linecap="round" stroke-linejoin="round"/>
<path d="M1.41016 14.4805H2.46384" stroke="#5355DF" stroke-width="2" stroke-miterlimit="10" stroke-linecap="round" stroke-linejoin="round"/>
<path d="M5.05469 4.84375L5.83931 5.62837" stroke="#5355DF" stroke-width="2" stroke-miterlimit="10" stroke-linecap="round" stroke-linejoin="round"/>
<path d="M16.6786 31.1548H12.7041C11.846 31.1548 11.1504 30.4592 11.1504 29.6011V26.5303H18.2323V29.6011C18.2324 30.4592 17.5368 31.1548 16.6786 31.1548Z" stroke="#5355DF" stroke-width="2" stroke-miterlimit="10" stroke-linecap="round" stroke-linejoin="round"/>
<path d="M14.6914 26.1838V15.7305" stroke="#5355DF" stroke-width="2" stroke-miterlimit="10" stroke-linecap="round" stroke-linejoin="round"/>
<path d="M12.5195 14.3613C13.5524 15.9118 15.8305 15.9118 16.8633 14.3613" stroke="#5355DF" stroke-width="2" stroke-miterlimit="10" stroke-linecap="round" stroke-linejoin="round"/>
<path d="M23.4806 14.544C23.4806 9.68941 19.5451 5.75391 14.6905 5.75391C9.83589 5.75391 5.90039 9.68941 5.90039 14.544C5.90039 17.6044 7.4647 20.299 9.83702 21.8732L9.86002 25.9102C9.86283 26.2533 10.1418 26.53 10.485 26.53H18.9303C19.2755 26.53 19.5553 26.2502 19.5553 25.905V21.8657C21.9213 20.2906 23.4806 17.5996 23.4806 14.544Z" stroke="#5355DF" stroke-width="2" stroke-miterlimit="10" stroke-linecap="round" stroke-linejoin="round"/>
</svg>
