<svg width="80" height="61" viewBox="0 0 80 61" fill="none" xmlns="http://www.w3.org/2000/svg">
<g opacity="0.15" clip-path="url(#icon_idea_clip_0)">
<path d="M42.1657 8.01953H25.6657C24.6576 8.01953 23.832 8.84507 23.832 9.85269V26.3527C23.832 27.3608 24.6576 28.1864 25.6657 28.1864H42.1657C43.1733 28.1864 43.9989 27.3608 43.9989 26.3527V9.85269C43.9989 8.84507 43.1733 8.01953 42.1657 8.01953Z" fill="#5355DF"/>
<path d="M18.3337 8.01953H1.83369C0.825536 8.01953 0 8.84507 0 9.85269V26.3527C0 27.3608 0.825536 28.1864 1.83369 28.1864H18.3337C19.3413 28.1864 20.1668 27.3608 20.1668 26.3527V9.85269C20.1668 8.84507 19.3413 8.01953 18.3337 8.01953Z" fill="#5355DF"/>
<path d="M42.1657 31.8525H25.6657C24.6576 31.8525 23.832 32.6781 23.832 33.6862V50.1862C23.832 51.1938 24.6576 52.0194 25.6657 52.0194H42.1657C43.1733 52.0194 43.9989 51.1938 43.9989 50.1862V33.6862C43.9989 32.6781 43.1733 31.8525 42.1657 31.8525Z" fill="#5355DF"/>
<path d="M18.3337 31.8525H1.83369C0.825536 31.8525 0 32.6781 0 33.6862V50.1862C0 51.1938 0.825536 52.0194 1.83369 52.0194H18.3337C19.3413 52.0194 20.1668 51.1938 20.1668 50.1862V33.6862C20.1668 32.6781 19.3413 31.8525 18.3337 31.8525Z" fill="#5355DF"/>
</g>
<g clip-path="url(#icon_idea_clip_1)">
<path d="M53.75 60.0195H46.25C44.5 60.0195 42.5 58.5195 42.5 55.5195V50.2695C42.5 47.7695 41.25 45.5195 39.25 43.7695C34.75 40.2695 32.5 35.2695 32.5 29.7695C32.75 20.2695 40.5 12.7695 49.75 12.5195C54.5 12.5195 59 14.2695 62.25 17.5195C65.5 20.7695 67.5 25.2695 67.5 30.0195C67.5 35.2695 65.25 40.2695 61 43.5195C58.75 45.2695 57.5 48.0195 57.5 50.5195V56.2695C57.5 58.2695 55.75 60.0195 53.75 60.0195ZM50 15.0195C42 15.0195 35.25 21.7695 35 29.7695C35 34.5195 37 39.0195 40.75 41.7695C43.5 44.0195 45 47.0195 45 50.2695V55.5195C45 56.0195 45 57.5195 46.25 57.5195H53.75C54.5 57.5195 55 57.0195 55 56.2695V50.5195C55 47.2695 56.75 43.7695 59.5 41.5195C63 38.7695 65 34.5195 65 30.0195C65 26.0195 63.5 22.2695 60.5 19.2695C57.75 16.5195 54 15.0195 50 15.0195Z" fill="#5355DF"/>
<path d="M56.25 52.5195H43.75C43 52.5195 42.5 52.0195 42.5 51.2695C42.5 50.5195 43 50.0195 43.75 50.0195H56.25C57 50.0195 57.5 50.5195 57.5 51.2695C57.5 52.0195 57 52.5195 56.25 52.5195Z" fill="#5355DF"/>
<path d="M50 7.51953C49.25 7.51953 48.75 7.01953 48.75 6.26953V1.26953C48.75 0.519531 49.25 0.0195312 50 0.0195312C50.75 0.0195312 51.25 0.519531 51.25 1.26953V6.26953C51.25 7.01953 50.75 7.51953 50 7.51953Z" fill="#5355DF"/>
<path d="M66.75 14.5195C66.5 14.5195 66 14.5195 65.75 14.2695C65.25 13.7695 65.25 13.0195 65.75 12.5195L69.25 9.01953C69.75 8.51953 70.5 8.51953 71 9.01953C71.5 9.51953 71.5 10.2695 71 10.7695L67.5 14.2695C67.5 14.2695 67 14.5195 66.75 14.5195Z" fill="#5355DF"/>
<path d="M78.75 31.2695H73.75C73 31.2695 72.5 30.7695 72.5 30.0195C72.5 29.2695 73 28.7695 73.75 28.7695H78.75C79.5 28.7695 80 29.2695 80 30.0195C80 30.7695 79.5 31.2695 78.75 31.2695Z" fill="#5355DF"/>
<path d="M70.25 51.5195C70 51.5195 69.5 51.5195 69.25 51.2695L65.75 47.7695C65.25 47.2695 65.25 46.5195 65.75 46.0195C66.25 45.5195 67 45.5195 67.5 46.0195L71 49.5195C71.5 50.0195 71.5 50.7695 71 51.2695C71 51.5195 70.75 51.5195 70.25 51.5195Z" fill="#5355DF"/>
<path d="M29.75 51.5195C29.5 51.5195 29 51.5195 28.75 51.2695C28.25 50.7695 28.25 50.0195 28.75 49.5195L32.25 46.0195C32.75 45.5195 33.5 45.5195 34 46.0195C34.5 46.5195 34.5 47.2695 34 47.7695L30.5 51.2695C30.25 51.5195 30 51.5195 29.75 51.5195Z" fill="#5355DF"/>
<path d="M26.25 31.2695H21.25C20.5 31.2695 20 30.7695 20 30.0195C20 29.2695 20.5 28.7695 21.25 28.7695H26.25C27 28.7695 27.5 29.2695 27.5 30.0195C27.5 30.7695 27 31.2695 26.25 31.2695Z" fill="#5355DF"/>
<path d="M33.25 14.5195C33 14.5195 32.5 14.5195 32.25 14.2695L28.75 10.5195C28.25 10.0195 28.25 9.26953 28.75 8.76953C29.25 8.26953 30 8.26953 30.5 8.76953L34 12.2695C34.5 12.7695 34.5 13.5195 34 14.0195C33.75 14.2695 33.5 14.5195 33.25 14.5195Z" fill="#5355DF"/>
<path d="M60 31.2695C59.25 31.2695 58.75 30.7695 58.75 30.0195C58.75 25.2695 54.75 21.2695 50 21.2695C49.25 21.2695 48.75 20.7695 48.75 20.0195C48.75 19.2695 49.25 18.7695 50 18.7695C56.25 18.7695 61.25 23.7695 61.25 30.0195C61.25 30.7695 60.75 31.2695 60 31.2695Z" fill="#5355DF"/>
</g>
<defs>
<clipPath id="icon_idea_clip_0">
<rect width="44" height="44" fill="white" transform="translate(0 8.01953)"/>
</clipPath>
<clipPath id="icon_idea_clip_1">
<rect width="60" height="60" fill="white" transform="translate(20 0.0195312)"/>
</clipPath>
</defs>
</svg>
